<?xml version="1.0" encoding="UTF-8" standalone="no"?>
<!-- Created with Inkscape (http://www.inkscape.org/) -->

<svg
   width="80mm"
   height="80mm"
   viewBox="0 0 80 80"
   version="1.1"
   id="svg1"
   inkscape:version="1.3.2 (091e20e, 2023-11-25)"
   sodipodi:docname="knulp.svg"
   xmlns:inkscape="http://www.inkscape.org/namespaces/inkscape"
   xmlns:sodipodi="http://sodipodi.sourceforge.net/DTD/sodipodi-0.dtd"
   xmlns="http://www.w3.org/2000/svg"
   xmlns:svg="http://www.w3.org/2000/svg">
  <sodipodi:namedview
     id="namedview1"
     pagecolor="#ffffff"
     bordercolor="#000000"
     borderopacity="0.25"
     inkscape:showpageshadow="2"
     inkscape:pageopacity="0.0"
     inkscape:pagecheckerboard="0"
     inkscape:deskcolor="#d1d1d1"
     inkscape:document-units="mm"
     showgrid="true"
     inkscape:zoom="0.84096521"
     inkscape:cx="118.31643"
     inkscape:cy="177.17737"
     inkscape:window-width="1280"
     inkscape:window-height="673"
     inkscape:window-x="0"
     inkscape:window-y="25"
     inkscape:window-maximized="1"
     inkscape:current-layer="layer1">
    <inkscape:grid
       id="grid1"
       units="mm"
       originx="-10.000044"
       originy="-12.499607"
       spacingx="0.99999998"
       spacingy="1"
       empcolor="#0099e5"
       empopacity="0.30196078"
       color="#0099e5"
       opacity="0.14901961"
       empspacing="5"
       dotted="false"
       gridanglex="30"
       gridanglez="30"
       visible="true" />
  </sodipodi:namedview>
  <defs
     id="defs1" />
  <g
     inkscape:label="Camada 1"
     inkscape:groupmode="layer"
     id="layer1"
     transform="translate(-10.000044,-12.499607)">
    <path
       id="rect1"
       style="fill:#000000;stroke-width:0.23665"
       d="m 39.999764,19.999526 v 5.000212 h 20.000329 v -5.000212 z m 20.000329,5.000212 v 5.000211 h 4.999695 v -5.000211 z m 4.999695,5.000211 v 9.999909 h 5.000214 v -9.999909 z m 5.000214,9.999909 v 15.00012 h -5.000214 v 4.99969 H 35.000069 v -4.99969 h -5.000212 v -5.00022 -9.9999 h -5.000211 v 9.9999 h -4.999695 v 5.00022 h 4.999695 v 4.99969 h 5.000211 v 5.00021 h 5.000212 v 4.9997 h 29.999719 v -4.9997 h 5.000214 v -5.00021 h 4.99969 v -4.99969 h 5.00021 v -5.00022 h -5.00021 v -9.9999 z m 9.9999,15.00012 v 4.99969 h 5.00022 v -4.99969 z m 5.00022,4.99969 v 9.99991 h 4.99969 v -9.99991 z m 0,9.99991 h -5.00022 v 5.00021 h 5.00022 z m -5.00022,5.00021 h -9.9999 v 5.00021 h 9.9999 z m -9.9999,5.00021 H 29.999857 v 4.99969 h 40.000145 z m -40.000145,0 v -5.00021 h -9.999906 v 5.00021 z m -9.999906,-5.00021 v -5.00021 h -5.000212 v 5.00021 z m -5.000212,-5.00021 v -9.99991 h -4.999695 v 9.99991 z m 0,-9.99991 h 5.000212 v -4.99969 h -5.000212 z m 15.000118,-19.99981 h 5.000212 v -9.999909 h -5.000212 z m 5.000212,-9.999909 h 4.999695 v -5.000211 h -4.999695 z" />
  </g>
</svg>
